<?xml version="1.0" encoding="UTF-8" standalone="no"?>
<!DOCTYPE svg PUBLIC "-//W3C//DTD SVG 1.1//EN" "http://www.w3.org/Graphics/SVG/1.1/DTD/svg11.dtd">
<svg width="100%" height="100%" viewBox="0 0 2134 2134" version="1.1" xmlns="http://www.w3.org/2000/svg" xmlns:xlink="http://www.w3.org/1999/xlink" xml:space="preserve" xmlns:serif="http://www.serif.com/" style="fill-rule:evenodd;clip-rule:evenodd;stroke-linejoin:round;stroke-miterlimit:2;">
    <g id="SAV-WHITE" serif:id="SAV WHITE" transform="matrix(3.583748,0,0,2.533981,0,0)">
        <rect x="0" y="0" width="595.28" height="841.89" style="fill:none;"/>
        <g id="ASSINATURA-BRANCA" serif:id="ASSINATURA BRANCA" transform="matrix(1.162656,0,0,1.644316,-155.227089,0)">
            <g transform="matrix(2.254911,0,0,2.254911,267.247938,41.499537)">
                <path d="M0,188.866C42.439,176.638 86.426,157.935 118.646,126.807C126.253,119.457 134.788,110.262 137.249,99.617C139.858,88.328 128.349,85.635 119.254,84.963C101.003,83.615 82.04,91.122 65.617,98.158C42.716,107.971 21.005,120.579 -0.07,133.799C0.709,133.8 1.488,133.8 2.267,133.8C1.969,125.533 6.045,117.289 9.922,110.244C15.523,100.068 22.526,90.662 29.784,81.623C45.958,61.481 64.224,42.871 83.508,25.706C90.604,19.389 97.891,13.167 105.698,7.736C107.988,6.143 110.358,4.545 112.906,3.391C114.021,2.887 114.764,2.364 115.023,3.29C115.472,4.894 113.889,7.277 113.173,8.565C111.129,12.245 108.611,15.676 106.104,19.049C96.152,32.431 85.015,44.963 73.916,57.391C66.362,65.85 58.692,74.205 50.976,82.515C49.055,84.583 47.133,86.65 45.18,88.687C44.656,89.232 44.129,89.772 43.591,90.302C42.732,91.147 42.616,90.658 44.114,90.458C44.527,90.581 44.939,90.704 45.353,90.827C45.146,90.455 50.519,84.263 51.215,83.386C55.639,77.81 60.047,72.221 64.355,66.555C68.902,60.577 73.361,54.513 77.417,48.188C79.66,44.691 83.003,40.147 83.264,35.828C83.332,34.702 80.428,35.304 80.373,36.216C80.091,40.888 76.368,45.658 73.927,49.423C69.79,55.798 65.217,61.893 60.61,67.932C56.394,73.46 52.072,78.906 47.752,84.352C47.191,85.059 41.88,90.571 42.455,91.603C42.695,92.035 43.256,92.031 43.694,91.972C46.239,91.633 48.599,87.938 50.174,86.265C58.157,77.78 66.018,69.175 73.813,60.516C85.446,47.594 97.02,34.523 107.565,20.686C111.084,16.071 117.186,9.592 117.949,3.495C118.448,-0.498 112.41,1.959 110.762,2.777C104.407,5.928 98.709,10.623 93.226,15.055C84.451,22.147 76.089,29.753 67.939,37.55C49.427,55.261 31.672,74.238 16.822,95.163C9.063,106.095 -1.14,120.455 -0.63,134.577C-0.601,135.405 1.405,134.767 1.707,134.578C26.119,119.263 51.416,104.714 78.455,94.535C89.704,90.3 101.631,86.813 113.718,86.442C119.465,86.265 130.797,86.684 133.873,92.728C137.806,100.456 129.685,111.041 125.271,116.628C114.462,130.305 99.877,141.084 85.271,150.349C58.913,167.07 29.551,178.891 -0.363,187.511C-2.078,188.005 -1.727,189.364 0,188.866" style="fill:white;fill-rule:nonzero;"/>
            </g>
            <g transform="matrix(2.254911,0,0,2.254911,279.219488,108.634107)">
                <path d="M0,41.963C-0.368,42.108 -1.308,41.821 -1.9,41.672C-4.141,41.11 -6.341,40.366 -8.545,39.678C-15.141,37.619 -21.971,36.183 -26.375,30.391C-28.134,28.078 -29.381,25.358 -30.371,22.643C-31.217,20.321 -32.05,17.566 -30.883,15.229C-29.23,11.92 -24.799,10.251 -21.502,9.182C-16.255,7.482 -11.087,5.512 -5.896,3.644C-3.956,2.946 -2.369,2.086 -0.075,1.265C2.047,0.506 4.597,-0.283 6.862,0.186C9.792,0.791 11.062,4.862 11.56,7.342C13.023,14.633 10.478,22.507 7.533,29.081C5.517,33.582 3.14,38.654 -0.387,42.227C-0.862,42.708 1.86,43.208 2.505,42.555C4.841,40.189 6.538,37.064 8.1,34.172C11.101,28.614 13.502,22.692 14.476,16.43C15.254,11.424 15.313,5.517 11.973,1.368C9.417,-1.806 4.747,-1.37 1.204,-0.593C-0.709,-0.173 -2.577,0.507 -4.384,1.253C-4.992,1.504 -5.592,1.777 -6.186,2.06C-6.419,2.171 -7.147,2.477 -6.787,2.347C-9.62,3.366 -12.453,4.385 -15.286,5.404C-16.944,6.001 -18.603,6.598 -20.261,7.194C-20.795,7.387 -21.33,7.579 -21.864,7.771C-22.159,7.877 -22.678,8.031 -22.243,7.916C-25.104,8.672 -27.905,9.852 -30.383,11.471C-31.979,12.513 -33.409,13.913 -34.135,15.696C-34.97,17.747 -34.163,20.146 -33.54,22.139C-31.66,28.149 -28.089,33.485 -22.43,36.447C-17.234,39.167 -11.027,40.462 -5.429,42.138C-3.075,42.843 -0.301,43.769 2.118,42.818C3.571,42.248 0.704,41.687 0,41.963" style="fill:white;fill-rule:nonzero;"/>
            </g>
            <g transform="matrix(2.208343,-0.4559,-0.4559,-2.208343,237.79255,188.390683)">
                <path d="M-2.592,0.354C2.846,7.365 9.25,20.341 -0.338,26.652C-0.969,27.067 -3.892,27.131 -2.592,26.276C6.281,20.434 -0.445,7.606 -5.35,1.282C-5.911,0.558 -3.111,-0.315 -2.592,0.354" style="fill:white;fill-rule:nonzero;"/>
            </g>
            <g transform="matrix(1.954685,-1.124202,-1.124202,-1.954685,317.060212,143.969815)">
                <path d="M-6.676,-3.361C-10.774,3.642 -15.103,16.736 -4.511,20.058C-3.766,20.294 -5.817,22.274 -6.676,22.005C-17.91,18.48 -13.212,4.564 -8.894,-2.814C-8.508,-3.473 -5.881,-4.72 -6.676,-3.361" style="fill:white;fill-rule:nonzero;"/>
            </g>
        </g>
    </g>
</svg>
